# xmcd
#
# Track frame offsets: 
#        150
#        20277
#        40895
#        67577
#        89907
#        109755
#        135115
#        156942
#        175507
#        197440
#        219305
#        238877
#        265665
#
# Disc length: 3852 seconds
#
# Revision: 6
# Processed by: cddbd v1.5.2PL0 Copyright (c) Steve Scherf et al.
# Submitted via: ExactAudioCopy v1.3
#
DISCID=a10f0a0d
DTITLE=John Miles - Upfront
DYEAR=1993
DGENRE=Rock
TTITLE0=Everthing's Ok
TTITLE1=Can't Get Through
TTITLE2=One More Day Without Love
TTITLE3=Oh How The Years Go By
TTITLE4=What Goes Around
TTITLE5=Now That The Magic Has Gone
TTITLE6=It's Such A Mystery
TTITLE7=Body Of My Brunette
TTITLE8=Forever And Ever
TTITLE9=It's Not Over Yet
TTITLE10=Chains And Wild Horses
TTITLE11=Absent Hearts
TTITLE12=Pale Spanish Moon
EXTD=
EXTT0=
EXTT1=
EXTT2=
EXTT3=
EXTT4=
EXTT5=
EXTT6=
EXTT7=
EXTT8=
EXTT9=
EXTT10=
EXTT11=
EXTT12=
PLAYORDER=
